<svg xmlns="http://www.w3.org/2000/svg" viewBox="0 0 64 64">
  <defs>
    <linearGradient id="g" x1="0" y1="0" x2="1" y2="1">
      <stop offset="0" stop-color="#f4f4f4"/>
      <stop offset="1" stop-color="#9aa3ad"/>
    </linearGradient>
  </defs>
  <path fill="url(#g)" d="M32 4l22 8v18c0 14.5-9.6 27.2-22 30.8C19.6 57.2 10 44.5 10 30V12L32 4z"/>
  <path fill="#111" d="M32 14.5c.7 3.8 2.6 6.2 5.6 7.4-4.2.4-7.4 2.6-9.4 6.6-2-4-5.2-6.2-9.4-6.6 3-1.2 4.9-3.6 5.6-7.4 1.2 3.2 3.8 5.2 7.6 5.8 3.8-.6 6.4-2.6 7.6-5.8z"/>
  <rect x="22" y="36" width="20" height="2.2" rx="1" fill="#111"/>
  <rect x="25" y="40.5" width="14" height="2.2" rx="1" fill="#111"/>
</svg>
